<svg version="1.1" xmlns="http://www.w3.org/2000/svg" width="100" height="100" viewBox="0 0 1000 1000">
<path d="M0 0 C1.36401443 -0.00101212 1.36401443 -0.00101212 2.75558472 -0.00204468 C48.37605893 0.05155398 92.10975436 10.78730314 132.4375 32.25 C133.14825684 32.62205566 133.85901367 32.99411133 134.59130859 33.37744141 C151.71025419 42.37302992 166.91116918 53.420162 181.71630859 65.81982422 C182.87501906 66.78262222 184.04497332 67.7320295 185.22509766 68.66845703 C186.66432566 69.81975525 188.05612434 71.02989093 189.4375 72.25 C189.4375 72.91 189.4375 73.57 189.4375 74.25 C188.13039063 74.27126953 188.13039063 74.27126953 186.796875 74.29296875 C172.56095369 74.86302188 161.61899226 79.55574997 151.8125 89.875 C142.13059372 101.46226999 139.43019566 114.49970005 140.25097656 129.18896484 C141.96864258 148.1687247 153.34866689 165.1704154 163.04492188 180.97265625 C186.65172115 219.5778848 195.34004957 258.54095362 184.86352539 303.13500977 C184.24029099 305.69750621 183.61164991 308.25786917 182.97265625 310.81640625 C182.71585933 311.84720055 182.71585933 311.84720055 182.45387459 312.89881897 C178.46415543 328.81202194 173.59440797 344.41885013 168.58436584 360.03506851 C167.37145763 363.82226607 166.16895083 367.61276333 164.96582031 371.40307617 C163.51048665 375.98669069 162.05465967 380.57013922 160.5942688 385.15214539 C157.5963549 394.56287658 154.64536234 403.98657407 151.73828125 413.42578125 C151.38603989 414.56683319 151.03379852 415.70788513 150.67088318 416.8835144 C148.699537 423.27030119 148.699537 423.27030119 146.74215698 429.66137695 C145.88160648 432.4807701 145.01212361 435.29725694 144.140625 438.11328125 C143.76874809 439.34695183 143.76874809 439.34695183 143.38935852 440.60554504 C142.79681021 442.50611811 142.12522856 444.38175994 141.4375 446.25 C140.7775 446.58 140.1175 446.91 139.4375 447.25 C131.65631659 424.62108702 123.98445223 401.9581597 116.4375 379.25 C111.31314248 363.83194522 106.15740316 348.42713557 100.875 333.0625 C93.80836252 312.50540134 86.96624352 291.87380331 80.10506058 271.24749374 C73.73616136 252.10196365 67.36634463 232.95823899 60.8125 213.875 C56.19390997 200.41752448 51.61471661 186.94747334 47.09552002 173.45623779 C46.41315411 171.42091264 45.72922349 169.38611132 45.04364014 167.35186768 C44.10019049 164.55114185 43.16257113 161.74853244 42.2265625 158.9453125 C41.94298889 158.10689819 41.65941528 157.26848389 41.36724854 156.40466309 C39.4375 150.59307574 39.4375 150.59307574 39.4375 147.25 C40.37021729 147.17483154 41.30293457 147.09966309 42.26391602 147.0222168 C45.7518244 146.7353701 49.23847886 146.4377793 52.72485352 146.13305664 C54.22872496 146.00379373 55.7329629 145.87871901 57.23754883 145.75805664 C59.41078759 145.5830162 61.58222547 145.3925308 63.75390625 145.19921875 C65.05787354 145.08924561 66.36184082 144.97927246 67.70532227 144.8659668 C72.21961692 144.12091771 76.99285705 143.16053052 79.87890625 139.34375 C80.50912448 136.98153343 80.60425851 135.18430854 80.375 132.75 C80.29572266 131.62078125 80.29572266 131.62078125 80.21484375 130.46875 C79.06914304 127.19860929 77.31439243 126.12795113 74.4375 124.25 C71.13732272 123.72836961 71.13732272 123.72836961 67.55859375 123.9375 C66.90056259 123.95369385 66.24253143 123.9698877 65.56455994 123.98657227 C59.2172852 124.17333604 52.88351215 124.64377633 46.55151367 125.10559082 C12.70622969 127.48801204 -21.72020259 127.4455625 -55.55859375 124.96191406 C-59.22563457 124.69384994 -62.89148607 124.45654325 -66.5625 124.25 C-67.25956055 124.2092334 -67.95662109 124.1684668 -68.67480469 124.12646484 C-70.84565908 124.01284552 -73.01466421 123.93883388 -75.1875 123.875 C-77.12496094 123.80152344 -77.12496094 123.80152344 -79.1015625 123.7265625 C-83.47402249 124.38786006 -84.8649728 125.82409022 -87.5625 129.25 C-88.61843376 132.62898805 -88.76304272 134.53138858 -87.8125 137.9375 C-86.54528294 140.28185156 -85.62388961 141.58256485 -83.5625 143.25 C-72.77534878 146.21910188 -60.67576334 146.26964972 -49.5625 147.25 C-41.11713071 168.99278763 -33.19434406 190.92627235 -25.2956543 212.87207031 C-19.61306991 228.66704334 -19.61306991 228.66704334 -13.7265625 244.38671875 C-13.1933039 245.79237804 -12.66009763 247.19805719 -12.12695312 248.60375977 C-11.20937111 251.02027012 -10.27127908 253.42468125 -9.31835938 255.82788086 C-8.73151367 257.37100952 -8.73151367 257.37100952 -8.1328125 258.9453125 C-7.80039551 259.79109863 -7.46797852 260.63688477 -7.12548828 261.50830078 C-5.83929556 267.77193662 -7.90778856 274.01660687 -9.92262268 279.93164062 C-10.2852987 281.02607687 -10.2852987 281.02607687 -10.65530151 282.14262295 C-11.46045404 284.5662608 -12.27621511 286.98618611 -13.09204102 289.40625 C-13.67410661 291.15103526 -14.25551032 292.89604145 -14.83630371 294.64125061 C-16.41006405 299.36396308 -17.99303898 304.08354021 -19.57771039 308.80260086 C-21.23401966 313.74022092 -22.88180408 318.68068415 -24.53050232 323.62084961 C-27.65168599 332.96887534 -30.78050667 342.31432608 -33.91209215 351.65887165 C-37.47783372 362.30016252 -41.03503248 372.9443024 -44.59152329 383.5886879 C-51.90569381 405.47897096 -59.23056316 427.36566175 -66.5625 449.25 C-67.2225 449.25 -67.8825 449.25 -68.5625 449.25 C-68.97387207 448.01064697 -69.38524414 446.77129395 -69.80908203 445.49438477 C-76.75560811 424.57451528 -83.70718419 403.65773578 -90.875 382.8125 C-95.64340943 368.94094607 -100.31341667 355.03741333 -104.94921875 341.12109375 C-105.38160071 339.823185 -105.38160071 339.823185 -105.82271767 338.49905586 C-108.75467499 329.69653505 -111.68337463 320.89293647 -114.60727787 312.08773708 C-120.49519728 294.35927355 -126.42993949 276.64892236 -132.484375 258.9765625 C-139.24741533 239.23534333 -145.88028435 219.45195789 -152.47167969 199.65283203 C-154.03613301 194.95362988 -155.60339949 190.25537098 -157.17136765 185.55734062 C-158.40093654 181.87224168 -159.62908093 178.18666924 -160.85678864 174.50094986 C-161.43523532 172.76494851 -162.01411807 171.0290924 -162.59346771 169.29339218 C-163.39286819 166.89773656 -164.19033797 164.50144665 -164.98730469 162.10498047 C-165.21994019 161.40909821 -165.45257568 160.71321594 -165.69226074 159.99624634 C-167.09386808 155.77330399 -168.36775918 151.53466717 -169.5625 147.25 C-168.59425293 147.17483154 -167.62600586 147.09966309 -166.62841797 147.0222168 C-163.01551544 146.73840302 -159.40413173 146.43814547 -155.79296875 146.13305664 C-154.23376142 146.00360752 -152.67418335 145.87854269 -151.11425781 145.75805664 C-148.86410081 145.58347549 -146.61577581 145.39284901 -144.3671875 145.19921875 C-143.6763205 145.14908127 -142.98545349 145.09894379 -142.27365112 145.04728699 C-137.77586382 144.63966022 -134.40822225 143.6242938 -130.5625 141.25 C-128.54778403 138.22792605 -128.22530966 137.33273301 -128.125 133.875 C-128.06505859 132.74964844 -128.06505859 132.74964844 -128.00390625 131.6015625 C-128.86171511 127.99036717 -130.71602151 126.56359566 -133.5625 124.25 C-137.06681452 123.60670564 -137.06681452 123.60670564 -140.90234375 123.875 C-141.95674904 123.90605835 -141.95674904 123.90605835 -143.03245544 123.93774414 C-145.21173827 124.01149798 -147.38563671 124.12442009 -149.5625 124.25 C-150.82465332 124.31832031 -152.08680664 124.38664062 -153.38720703 124.45703125 C-156.60885019 124.65546732 -159.82814002 124.87565445 -163.04769897 125.1050415 C-185.8668533 126.69741076 -208.7015439 126.4430197 -231.5625 126.25 C-222.07335651 109.43705414 -208.84692254 95.1343389 -195.5625 81.25 C-194.20898438 79.83267578 -194.20898438 79.83267578 -192.828125 78.38671875 C-187.09738355 72.51909653 -180.99301027 67.33163015 -174.5625 62.25 C-173.49126942 61.37742797 -172.42098912 60.50368828 -171.3515625 59.62890625 C-123.10930099 20.49938274 -61.81332949 0.04127838 0 0 Z " fill="#ffffff" transform="translate(498.5625,221.75)"/>
<path d="M0 0 C0.804375 0.73347656 1.60875 1.46695313 2.4375 2.22265625 C3.98358604 3.62379672 5.54551178 5.00771794 7.125 6.37109375 C18.80460383 16.53311748 29.29046666 28.18821853 38.8125 40.375 C39.5859375 41.34179688 40.359375 42.30859375 41.15625 43.3046875 C52.32156409 57.47332975 61.96376409 72.67108761 70.8125 88.375 C71.18439453 89.02694336 71.55628906 89.67888672 71.93945312 90.35058594 C89.45294817 121.25402826 100.47114922 155.54448233 106.8125 190.375 C106.97830566 191.27718262 107.14411133 192.17936523 107.31494141 193.10888672 C122.59727783 278.61446183 101.71951423 369.05282466 52.4765625 440.25390625 C44.06028052 452.18734749 34.79999055 463.21417996 24.96484375 474 C23.56370328 475.54608604 22.17978206 477.10801178 20.81640625 478.6875 C10.65438252 490.36710383 -1.00071853 500.85296666 -13.1875 510.375 C-14.15429688 511.1484375 -15.12109375 511.921875 -16.1171875 512.71875 C-30.28582975 523.88406409 -45.48358761 533.52626409 -61.1875 542.375 C-61.83944336 542.74689453 -62.49138672 543.11878906 -63.16308594 543.50195312 C-94.06652826 561.01544817 -128.35698233 572.03364922 -163.1875 578.375 C-164.08968262 578.54080566 -164.99186523 578.70661133 -165.92138672 578.87744141 C-251.42696183 594.15977783 -341.86532466 573.28201423 -413.06640625 524.0390625 C-424.99984749 515.62278052 -436.02667996 506.36249055 -446.8125 496.52734375 C-448.35858604 495.12620328 -449.92051178 493.74228206 -451.5 492.37890625 C-463.17960383 482.21688252 -473.66546666 470.56178147 -483.1875 458.375 C-483.9609375 457.40820312 -484.734375 456.44140625 -485.53125 455.4453125 C-496.69656409 441.27667025 -506.33876409 426.07891239 -515.1875 410.375 C-515.55939453 409.72305664 -515.93128906 409.07111328 -516.31445312 408.39941406 C-533.82794817 377.49597174 -544.84614922 343.20551767 -551.1875 308.375 C-551.35330566 307.47281738 -551.51911133 306.57063477 -551.68994141 305.64111328 C-566.97227783 220.13553817 -546.09451423 129.69717534 -496.8515625 58.49609375 C-488.43528052 46.56265251 -479.17499055 35.53582004 -469.33984375 24.75 C-467.93870328 23.20391396 -466.55478206 21.64198822 -465.19140625 20.0625 C-455.02938252 8.38289617 -443.37428147 -2.10296666 -431.1875 -11.625 C-430.22070312 -12.3984375 -429.25390625 -13.171875 -428.2578125 -13.96875 C-414.08917025 -25.13406409 -398.89141239 -34.77626409 -383.1875 -43.625 C-382.53555664 -43.99689453 -381.88361328 -44.36878906 -381.21191406 -44.75195312 C-350.30847174 -62.26544817 -316.01801767 -73.28364922 -281.1875 -79.625 C-280.28531738 -79.79080566 -279.38313477 -79.95661133 -278.45361328 -80.12744141 C-185.71325345 -96.70284455 -83.3782258 -70.99339656 0 0 Z M-293.1875 -55.625 C-294.13318848 -55.41004883 -295.07887695 -55.19509766 -296.05322266 -54.97363281 C-353.52197721 -41.7594734 -414.43048347 -8.56041793 -452.55078125 37.43359375 C-454.50711898 39.75411845 -456.59998931 41.92170568 -458.6875 44.125 C-493.64569972 82.54177351 -516.69272193 132.13530585 -528.1875 182.375 C-528.39600586 183.26783691 -528.60451172 184.16067383 -528.81933594 185.08056641 C-538.9067433 229.19808915 -537.48862872 276.48099159 -527.1875 320.375 C-526.86507324 321.79353271 -526.86507324 321.79353271 -526.53613281 323.24072266 C-513.3219734 380.70947721 -480.12291793 441.61798347 -434.12890625 479.73828125 C-431.80838155 481.69461898 -429.64079432 483.78748931 -427.4375 485.875 C-389.02072649 520.83319972 -339.42719415 543.88022193 -289.1875 555.375 C-287.84824463 555.68775879 -287.84824463 555.68775879 -286.48193359 556.00683594 C-242.36441085 566.0942433 -195.08150841 564.67612872 -151.1875 554.375 C-149.76896729 554.05257324 -149.76896729 554.05257324 -148.32177734 553.72363281 C-90.85302279 540.5094734 -29.94451653 507.31041793 8.17578125 461.31640625 C10.13211898 458.99588155 12.22498931 456.82829432 14.3125 454.625 C49.27069972 416.20822649 72.31772193 366.61469415 83.8125 316.375 C84.12525879 315.03574463 84.12525879 315.03574463 84.44433594 313.66943359 C94.5317433 269.55191085 93.11362872 222.26900841 82.8125 178.375 C82.59754883 177.42931152 82.38259766 176.48362305 82.16113281 175.50927734 C68.9469734 118.04052279 35.74791793 57.13201653 -10.24609375 19.01171875 C-12.56661845 17.05538102 -14.73420568 14.96251069 -16.9375 12.875 C-55.35427351 -22.08319972 -104.94780585 -45.13022193 -155.1875 -56.625 C-156.08033691 -56.83350586 -156.97317383 -57.04201172 -157.89306641 -57.25683594 C-202.01058915 -67.3442433 -249.29349159 -65.92612872 -293.1875 -55.625 Z " fill="#ffffff" transform="translate(722.1875,250.625)"/>
<path d="M0 0 C0.66 0 1.32 0 2 0 C2.32468513 0.90008034 2.32468513 0.90008034 2.65592957 1.81834412 C5.49688053 9.69244647 8.34109389 17.56536819 11.1875 25.4375 C11.42159702 26.08495178 11.65569405 26.73240356 11.89688492 27.3994751 C19.09055157 47.29241025 26.35454817 67.15790512 33.6875 87 C40.26720114 104.80525004 46.77851507 122.63257489 53.1875 140.5 C59.27185489 157.46031022 65.41329035 174.39838606 71.625 191.3125 C71.99136566 192.3113623 72.35773132 193.31022461 72.73519897 194.33935547 C76.90531372 205.70426098 81.12403653 217.04715661 85.49404907 228.33699036 C85.8084494 229.15415024 86.12284973 229.97131012 86.44677734 230.81323242 C86.72339203 231.52767014 87.00000671 232.24210785 87.28500366 232.97819519 C87.98854499 234.96760851 88.52378335 236.9454658 89 239 C34.49914802 256.73892008 -27.90678904 261.97367333 -83 243 C-80.40666628 232.45740323 -76.77511648 222.25675484 -73.25 212 C-72.57845801 210.03797631 -71.90707432 208.07589844 -71.23583984 206.11376953 C-66.44733565 192.1346394 -61.5854252 178.18153544 -56.70056152 164.23583984 C-51.17574963 148.45810592 -45.78152164 132.63791241 -40.4175415 116.80487061 C-35.22497603 101.48280097 -29.95123703 86.19187807 -24.59710693 70.92556763 C-18.399467 53.24680287 -12.36859256 35.51252255 -6.36914062 17.765625 C-5.84185867 16.20818321 -5.84185867 16.20818321 -5.30392456 14.61927795 C-4.64208426 12.66401802 -3.98148206 10.70833843 -3.32229614 8.75218201 C-3.02983002 7.88835403 -2.73736389 7.02452606 -2.43603516 6.13452148 C-2.18149567 5.38041489 -1.92695618 4.62630829 -1.66470337 3.84934998 C-1 2 -1 2 0 0 Z " fill="#ffffff" transform="translate(504,524)"/>
<path d="M0 0 C0.66 0 1.32 0 2 0 C7.43478728 13.68036288 12.48607872 27.48783188 17.47137451 41.3374939 C19.79710685 47.79726759 22.13088061 54.25413398 24.46484375 60.7109375 C24.81860455 61.68987126 24.81860455 61.68987126 25.17951202 62.68858147 C29.70277963 75.20366969 34.2765131 87.69986226 38.875 100.1875 C45.67393415 118.65645458 52.44120754 137.13676689 59.1875 155.625 C59.67543455 156.96210764 60.16336994 158.29921498 60.65130615 159.63632202 C62.62081296 165.03355976 64.59014624 170.43086079 66.5592041 175.82826233 C69.96144967 185.1541745 73.36496497 194.47962229 76.76953125 203.8046875 C77.00626116 204.4530979 77.24299107 205.10150829 77.48689461 205.76956749 C79.8728547 212.30476352 82.25896111 218.83990612 84.64520359 225.37499905 C85.83903303 228.64451486 87.03280991 231.91404987 88.2265625 235.18359375 C88.46304945 235.83129541 88.6995364 236.47899708 88.94318962 237.14632607 C92.1195371 245.84610898 95.29374541 254.54666946 98.46614075 263.24789429 C100.20192429 268.00877734 101.93823249 272.76946898 103.67473888 277.53008842 C104.88966451 280.86081289 106.10439691 284.19160748 107.31863403 287.52258301 C112.25124703 301.05297811 117.20150997 314.57635456 122.22265625 328.07421875 C122.62834839 329.16597916 123.03404053 330.25773956 123.45202637 331.38258362 C125.33691424 336.45359919 127.22682511 341.52262672 129.12646484 346.58813477 C129.78109094 348.34515283 130.43556086 350.1022291 131.08984375 351.859375 C131.38858902 352.64982712 131.68733429 353.44027924 131.99513245 354.25468445 C133.12576893 357.30279208 134 359.72091501 134 363 C98.17322633 355.23244737 59.60215058 315.92087835 38 288 C37.20207031 286.99582031 36.40414062 285.99164062 35.58203125 284.95703125 C25.41677448 272.08460402 16.73155961 258.45605234 9 244 C8.66790527 243.38640625 8.33581055 242.7728125 7.99365234 242.140625 C-4.86768078 218.19590535 -13.5695764 192.30677976 -18.8125 165.6875 C-19.00755127 164.69951416 -19.20260254 163.71152832 -19.40356445 162.69360352 C-22.39432801 146.51287347 -23.38479679 130.36588263 -23.3125 113.9375 C-23.30926727 112.60196075 -23.30926727 112.60196075 -23.30596924 111.23944092 C-23.15554571 72.29018116 -14.50532475 35.9896265 0 0 Z " fill="#ffffff" transform="translate(245,387)"/>
<path d="M0 0 C24.48305376 21.87295822 32.22364886 78.71187277 34.8190918 109.71069336 C36.10007141 133.00170317 36.15192829 157.0139622 32 180 C31.80664062 181.093125 31.61328125 182.18625 31.4140625 183.3125 C26.994717 207.53706054 19.70952327 230.81792022 9 253 C8.69271973 253.65403809 8.38543945 254.30807617 8.06884766 254.98193359 C-2.84580613 278.21232986 -17.15519412 298.72688372 -34 318 C-35.10408203 319.27230469 -35.10408203 319.27230469 -36.23046875 320.5703125 C-45.69986921 331.29884999 -55.73379617 341.16608006 -67 350 C-68.21236328 350.99580078 -68.21236328 350.99580078 -69.44921875 352.01171875 C-79.9933868 360.6542011 -91.33326006 367.99231824 -103 375 C-104 373 -104 373 -103.61376953 371.26454163 C-103.37255371 370.56372971 -103.13133789 369.86291779 -102.8828125 369.14086914 C-102.61019089 368.33703293 -102.33756927 367.53319672 -102.0566864 366.70500183 C-101.59550163 365.38342827 -101.59550163 365.38342827 -101.125 364.03515625 C-100.80968826 363.11297806 -100.49437653 362.19079987 -100.16950989 361.24067688 C-99.12033265 358.17871372 -98.06026059 355.12064133 -97 352.0625 C-96.25945386 349.90920803 -95.51947093 347.75572229 -94.7800293 345.60205078 C-89.56767867 330.44338434 -84.28969235 315.30725723 -78.9934082 300.17773438 C-73.73338347 285.14534533 -68.5422308 270.08949593 -63.36365128 255.02890015 C-61.33791683 249.13760828 -59.31159664 243.24651782 -57.28515625 237.35546875 C-57.06289305 236.70930981 -56.84062984 236.06315086 -56.61163139 235.39741135 C-46.76285804 206.76729332 -36.85358741 178.15787494 -26.89614868 149.56536865 C-26.26185017 147.74390837 -25.627873 145.92233615 -24.99423218 144.10064697 C-21.76142624 134.80991567 -18.48523625 125.54202741 -15.06933594 116.31689453 C-4.98413839 88.98940281 1.21892764 60.48766099 1.13037109 31.2878418 C1.12503602 29.20158533 1.13033352 27.11554663 1.13671875 25.02929688 C1.14043422 16.64831268 0.78674436 8.34863004 0 0 Z " fill="#ffffff" transform="translate(743,366)"/>
</svg>